<mxfile host="Electron" modified="2025-02-14T16:46:58.995Z" agent="Mozilla/5.0 (Windows NT 10.0; Win64; x64) AppleWebKit/537.36 (KHTML, like Gecko) draw.io/22.0.3 Chrome/114.0.5735.289 Electron/25.8.4 Safari/537.36" etag="VDeuTrIXGrHKAVmVb8Tj" version="22.0.3" type="device">
  <diagram name="Página-1" id="IXpy0Lbc3KnWT4WAiE8w">
    <mxGraphModel dx="1050" dy="621" grid="1" gridSize="10" guides="1" tooltips="1" connect="1" arrows="1" fold="1" page="1" pageScale="1" pageWidth="827" pageHeight="1169" math="0" shadow="0">
      <root>
        <mxCell id="0" />
        <mxCell id="1" parent="0" />
        <mxCell id="IVV3LkEuz2h6UDSS0lqs-3" style="edgeStyle=orthogonalEdgeStyle;rounded=0;orthogonalLoop=1;jettySize=auto;html=1;entryX=0;entryY=0.5;entryDx=0;entryDy=0;" edge="1" parent="1" source="IVV3LkEuz2h6UDSS0lqs-1" target="IVV3LkEuz2h6UDSS0lqs-2">
          <mxGeometry relative="1" as="geometry" />
        </mxCell>
        <mxCell id="IVV3LkEuz2h6UDSS0lqs-1" value="&amp;lt;&amp;lt;Empresa&amp;gt;&amp;gt;" style="shape=umlActor;verticalLabelPosition=bottom;verticalAlign=top;html=1;outlineConnect=0;" vertex="1" parent="1">
          <mxGeometry x="50" y="140" width="30" height="60" as="geometry" />
        </mxCell>
        <mxCell id="IVV3LkEuz2h6UDSS0lqs-5" style="edgeStyle=orthogonalEdgeStyle;rounded=0;orthogonalLoop=1;jettySize=auto;html=1;entryX=0;entryY=0.5;entryDx=0;entryDy=0;dashed=1;" edge="1" parent="1" source="IVV3LkEuz2h6UDSS0lqs-2" target="IVV3LkEuz2h6UDSS0lqs-4">
          <mxGeometry relative="1" as="geometry" />
        </mxCell>
        <mxCell id="IVV3LkEuz2h6UDSS0lqs-2" value="Crear Evento" style="ellipse;whiteSpace=wrap;html=1;" vertex="1" parent="1">
          <mxGeometry x="160" y="150" width="100" height="40" as="geometry" />
        </mxCell>
        <mxCell id="IVV3LkEuz2h6UDSS0lqs-13" style="edgeStyle=orthogonalEdgeStyle;rounded=0;orthogonalLoop=1;jettySize=auto;html=1;dashed=1;" edge="1" parent="1" source="IVV3LkEuz2h6UDSS0lqs-4" target="IVV3LkEuz2h6UDSS0lqs-12">
          <mxGeometry relative="1" as="geometry" />
        </mxCell>
        <mxCell id="IVV3LkEuz2h6UDSS0lqs-4" value="Iniciar Sesión" style="ellipse;whiteSpace=wrap;html=1;" vertex="1" parent="1">
          <mxGeometry x="330" y="150" width="100" height="40" as="geometry" />
        </mxCell>
        <mxCell id="IVV3LkEuz2h6UDSS0lqs-6" value="Registrarme" style="ellipse;whiteSpace=wrap;html=1;" vertex="1" parent="1">
          <mxGeometry x="340" y="60" width="100" height="40" as="geometry" />
        </mxCell>
        <mxCell id="IVV3LkEuz2h6UDSS0lqs-8" style="edgeStyle=orthogonalEdgeStyle;rounded=0;orthogonalLoop=1;jettySize=auto;html=1;entryX=0.6;entryY=0.03;entryDx=0;entryDy=0;entryPerimeter=0;dashed=1;" edge="1" parent="1" source="IVV3LkEuz2h6UDSS0lqs-6" target="IVV3LkEuz2h6UDSS0lqs-4">
          <mxGeometry relative="1" as="geometry" />
        </mxCell>
        <mxCell id="IVV3LkEuz2h6UDSS0lqs-9" value="&amp;lt;&amp;lt;Include&amp;gt;&amp;gt;" style="text;html=1;strokeColor=none;fillColor=none;align=center;verticalAlign=middle;whiteSpace=wrap;rounded=0;" vertex="1" parent="1">
          <mxGeometry x="260" y="180" width="60" height="30" as="geometry" />
        </mxCell>
        <mxCell id="IVV3LkEuz2h6UDSS0lqs-10" value="&amp;lt;&amp;lt;Exclude&amp;gt;&amp;gt;" style="text;html=1;strokeColor=none;fillColor=none;align=center;verticalAlign=middle;whiteSpace=wrap;rounded=0;" vertex="1" parent="1">
          <mxGeometry x="320" y="110" width="60" height="30" as="geometry" />
        </mxCell>
        <mxCell id="IVV3LkEuz2h6UDSS0lqs-15" style="edgeStyle=orthogonalEdgeStyle;rounded=0;orthogonalLoop=1;jettySize=auto;html=1;dashed=1;" edge="1" parent="1" source="IVV3LkEuz2h6UDSS0lqs-12" target="IVV3LkEuz2h6UDSS0lqs-14">
          <mxGeometry relative="1" as="geometry" />
        </mxCell>
        <mxCell id="IVV3LkEuz2h6UDSS0lqs-12" value="Ver Perfil" style="ellipse;whiteSpace=wrap;html=1;" vertex="1" parent="1">
          <mxGeometry x="500" y="150" width="100" height="40" as="geometry" />
        </mxCell>
        <mxCell id="IVV3LkEuz2h6UDSS0lqs-17" style="edgeStyle=orthogonalEdgeStyle;rounded=0;orthogonalLoop=1;jettySize=auto;html=1;entryX=0.5;entryY=0;entryDx=0;entryDy=0;dashed=1;" edge="1" parent="1" source="IVV3LkEuz2h6UDSS0lqs-14" target="IVV3LkEuz2h6UDSS0lqs-16">
          <mxGeometry relative="1" as="geometry" />
        </mxCell>
        <mxCell id="IVV3LkEuz2h6UDSS0lqs-14" value="Visualizar Eventos" style="ellipse;whiteSpace=wrap;html=1;" vertex="1" parent="1">
          <mxGeometry x="670" y="150" width="100" height="40" as="geometry" />
        </mxCell>
        <mxCell id="IVV3LkEuz2h6UDSS0lqs-20" style="edgeStyle=orthogonalEdgeStyle;rounded=0;orthogonalLoop=1;jettySize=auto;html=1;entryX=1;entryY=0.5;entryDx=0;entryDy=0;dashed=1;" edge="1" parent="1" source="IVV3LkEuz2h6UDSS0lqs-16" target="IVV3LkEuz2h6UDSS0lqs-19">
          <mxGeometry relative="1" as="geometry" />
        </mxCell>
        <mxCell id="IVV3LkEuz2h6UDSS0lqs-23" style="edgeStyle=orthogonalEdgeStyle;rounded=0;orthogonalLoop=1;jettySize=auto;html=1;dashed=1;" edge="1" parent="1" source="IVV3LkEuz2h6UDSS0lqs-16" target="IVV3LkEuz2h6UDSS0lqs-22">
          <mxGeometry relative="1" as="geometry" />
        </mxCell>
        <mxCell id="IVV3LkEuz2h6UDSS0lqs-16" value="Crear Evento" style="ellipse;whiteSpace=wrap;html=1;" vertex="1" parent="1">
          <mxGeometry x="670" y="250" width="100" height="40" as="geometry" />
        </mxCell>
        <mxCell id="IVV3LkEuz2h6UDSS0lqs-21" style="edgeStyle=orthogonalEdgeStyle;rounded=0;orthogonalLoop=1;jettySize=auto;html=1;entryX=0;entryY=0.5;entryDx=0;entryDy=0;" edge="1" parent="1" source="IVV3LkEuz2h6UDSS0lqs-18" target="IVV3LkEuz2h6UDSS0lqs-19">
          <mxGeometry relative="1" as="geometry" />
        </mxCell>
        <mxCell id="IVV3LkEuz2h6UDSS0lqs-26" style="edgeStyle=orthogonalEdgeStyle;rounded=0;orthogonalLoop=1;jettySize=auto;html=1;entryX=0;entryY=0.5;entryDx=0;entryDy=0;" edge="1" parent="1" source="IVV3LkEuz2h6UDSS0lqs-18" target="IVV3LkEuz2h6UDSS0lqs-24">
          <mxGeometry relative="1" as="geometry" />
        </mxCell>
        <mxCell id="IVV3LkEuz2h6UDSS0lqs-18" value="&amp;lt;&amp;lt;Sistema&amp;gt;&amp;gt;" style="shape=umlActor;verticalLabelPosition=bottom;verticalAlign=top;html=1;outlineConnect=0;" vertex="1" parent="1">
          <mxGeometry x="290" y="280" width="30" height="60" as="geometry" />
        </mxCell>
        <mxCell id="IVV3LkEuz2h6UDSS0lqs-19" value="Verificar Evento" style="ellipse;whiteSpace=wrap;html=1;" vertex="1" parent="1">
          <mxGeometry x="390" y="290" width="100" height="40" as="geometry" />
        </mxCell>
        <mxCell id="IVV3LkEuz2h6UDSS0lqs-22" value="Evento Creado" style="ellipse;whiteSpace=wrap;html=1;" vertex="1" parent="1">
          <mxGeometry x="670" y="350" width="100" height="40" as="geometry" />
        </mxCell>
        <mxCell id="IVV3LkEuz2h6UDSS0lqs-27" style="edgeStyle=orthogonalEdgeStyle;rounded=0;orthogonalLoop=1;jettySize=auto;html=1;entryX=0;entryY=0.5;entryDx=0;entryDy=0;dashed=1;" edge="1" parent="1" source="IVV3LkEuz2h6UDSS0lqs-24" target="IVV3LkEuz2h6UDSS0lqs-22">
          <mxGeometry relative="1" as="geometry" />
        </mxCell>
        <mxCell id="IVV3LkEuz2h6UDSS0lqs-24" value="Mandar Correo" style="ellipse;whiteSpace=wrap;html=1;" vertex="1" parent="1">
          <mxGeometry x="390" y="360" width="100" height="40" as="geometry" />
        </mxCell>
        <mxCell id="IVV3LkEuz2h6UDSS0lqs-28" value="&amp;lt;&amp;lt;Include&amp;gt;&amp;gt;" style="text;html=1;strokeColor=none;fillColor=none;align=center;verticalAlign=middle;whiteSpace=wrap;rounded=0;" vertex="1" parent="1">
          <mxGeometry x="440" y="140" width="60" height="30" as="geometry" />
        </mxCell>
        <mxCell id="IVV3LkEuz2h6UDSS0lqs-29" value="&amp;lt;&amp;lt;Include&amp;gt;&amp;gt;" style="text;html=1;strokeColor=none;fillColor=none;align=center;verticalAlign=middle;whiteSpace=wrap;rounded=0;" vertex="1" parent="1">
          <mxGeometry x="610" y="140" width="60" height="30" as="geometry" />
        </mxCell>
        <mxCell id="IVV3LkEuz2h6UDSS0lqs-30" value="&amp;lt;&amp;lt;Include&amp;gt;&amp;gt;" style="text;html=1;strokeColor=none;fillColor=none;align=center;verticalAlign=middle;whiteSpace=wrap;rounded=0;" vertex="1" parent="1">
          <mxGeometry x="600" y="240" width="60" height="30" as="geometry" />
        </mxCell>
        <mxCell id="IVV3LkEuz2h6UDSS0lqs-31" value="&amp;lt;&amp;lt;Include&amp;gt;&amp;gt;" style="text;html=1;strokeColor=none;fillColor=none;align=center;verticalAlign=middle;whiteSpace=wrap;rounded=0;" vertex="1" parent="1">
          <mxGeometry x="730" y="200" width="60" height="30" as="geometry" />
        </mxCell>
        <mxCell id="IVV3LkEuz2h6UDSS0lqs-32" value="&amp;lt;&amp;lt;Include&amp;gt;&amp;gt;" style="text;html=1;strokeColor=none;fillColor=none;align=center;verticalAlign=middle;whiteSpace=wrap;rounded=0;" vertex="1" parent="1">
          <mxGeometry x="730" y="300" width="60" height="30" as="geometry" />
        </mxCell>
        <mxCell id="IVV3LkEuz2h6UDSS0lqs-33" value="&amp;lt;&amp;lt;Include&amp;gt;&amp;gt;" style="text;html=1;strokeColor=none;fillColor=none;align=center;verticalAlign=middle;whiteSpace=wrap;rounded=0;" vertex="1" parent="1">
          <mxGeometry x="560" y="340" width="60" height="30" as="geometry" />
        </mxCell>
        <mxCell id="IVV3LkEuz2h6UDSS0lqs-36" style="edgeStyle=orthogonalEdgeStyle;rounded=0;orthogonalLoop=1;jettySize=auto;html=1;entryX=0;entryY=0.5;entryDx=0;entryDy=0;" edge="1" parent="1" source="IVV3LkEuz2h6UDSS0lqs-34" target="IVV3LkEuz2h6UDSS0lqs-35">
          <mxGeometry relative="1" as="geometry" />
        </mxCell>
        <mxCell id="IVV3LkEuz2h6UDSS0lqs-34" value="&amp;lt;&amp;lt;Empresa&amp;gt;&amp;gt;" style="shape=umlActor;verticalLabelPosition=bottom;verticalAlign=top;html=1;outlineConnect=0;" vertex="1" parent="1">
          <mxGeometry x="40" y="490" width="30" height="60" as="geometry" />
        </mxCell>
        <mxCell id="IVV3LkEuz2h6UDSS0lqs-47" style="edgeStyle=orthogonalEdgeStyle;rounded=0;orthogonalLoop=1;jettySize=auto;html=1;entryX=0;entryY=0.5;entryDx=0;entryDy=0;dashed=1;" edge="1" parent="1" source="IVV3LkEuz2h6UDSS0lqs-35" target="IVV3LkEuz2h6UDSS0lqs-38">
          <mxGeometry relative="1" as="geometry" />
        </mxCell>
        <mxCell id="IVV3LkEuz2h6UDSS0lqs-35" value="Actualizar Evento" style="ellipse;whiteSpace=wrap;html=1;" vertex="1" parent="1">
          <mxGeometry x="120" y="500" width="100" height="40" as="geometry" />
        </mxCell>
        <mxCell id="IVV3LkEuz2h6UDSS0lqs-37" style="edgeStyle=orthogonalEdgeStyle;rounded=0;orthogonalLoop=1;jettySize=auto;html=1;dashed=1;" edge="1" parent="1" source="IVV3LkEuz2h6UDSS0lqs-38" target="IVV3LkEuz2h6UDSS0lqs-43">
          <mxGeometry relative="1" as="geometry" />
        </mxCell>
        <mxCell id="IVV3LkEuz2h6UDSS0lqs-38" value="Iniciar Sesión" style="ellipse;whiteSpace=wrap;html=1;" vertex="1" parent="1">
          <mxGeometry x="280" y="500" width="100" height="40" as="geometry" />
        </mxCell>
        <mxCell id="IVV3LkEuz2h6UDSS0lqs-39" value="Registrarme" style="ellipse;whiteSpace=wrap;html=1;" vertex="1" parent="1">
          <mxGeometry x="290" y="410" width="100" height="40" as="geometry" />
        </mxCell>
        <mxCell id="IVV3LkEuz2h6UDSS0lqs-40" style="edgeStyle=orthogonalEdgeStyle;rounded=0;orthogonalLoop=1;jettySize=auto;html=1;entryX=0.6;entryY=0.03;entryDx=0;entryDy=0;entryPerimeter=0;dashed=1;" edge="1" parent="1" source="IVV3LkEuz2h6UDSS0lqs-39" target="IVV3LkEuz2h6UDSS0lqs-38">
          <mxGeometry relative="1" as="geometry" />
        </mxCell>
        <mxCell id="IVV3LkEuz2h6UDSS0lqs-41" value="&amp;lt;&amp;lt;Exclude&amp;gt;&amp;gt;" style="text;html=1;strokeColor=none;fillColor=none;align=center;verticalAlign=middle;whiteSpace=wrap;rounded=0;" vertex="1" parent="1">
          <mxGeometry x="270" y="460" width="60" height="30" as="geometry" />
        </mxCell>
        <mxCell id="IVV3LkEuz2h6UDSS0lqs-42" style="edgeStyle=orthogonalEdgeStyle;rounded=0;orthogonalLoop=1;jettySize=auto;html=1;dashed=1;" edge="1" parent="1" source="IVV3LkEuz2h6UDSS0lqs-43" target="IVV3LkEuz2h6UDSS0lqs-44">
          <mxGeometry relative="1" as="geometry" />
        </mxCell>
        <mxCell id="IVV3LkEuz2h6UDSS0lqs-43" value="Ver Perfil" style="ellipse;whiteSpace=wrap;html=1;" vertex="1" parent="1">
          <mxGeometry x="450" y="500" width="100" height="40" as="geometry" />
        </mxCell>
        <mxCell id="IVV3LkEuz2h6UDSS0lqs-50" style="edgeStyle=orthogonalEdgeStyle;rounded=0;orthogonalLoop=1;jettySize=auto;html=1;dashed=1;" edge="1" parent="1" source="IVV3LkEuz2h6UDSS0lqs-44" target="IVV3LkEuz2h6UDSS0lqs-49">
          <mxGeometry relative="1" as="geometry" />
        </mxCell>
        <mxCell id="IVV3LkEuz2h6UDSS0lqs-44" value="Visualizar Eventos" style="ellipse;whiteSpace=wrap;html=1;" vertex="1" parent="1">
          <mxGeometry x="620" y="500" width="100" height="40" as="geometry" />
        </mxCell>
        <mxCell id="IVV3LkEuz2h6UDSS0lqs-45" value="&amp;lt;&amp;lt;Include&amp;gt;&amp;gt;" style="text;html=1;strokeColor=none;fillColor=none;align=center;verticalAlign=middle;whiteSpace=wrap;rounded=0;" vertex="1" parent="1">
          <mxGeometry x="390" y="490" width="60" height="30" as="geometry" />
        </mxCell>
        <mxCell id="IVV3LkEuz2h6UDSS0lqs-46" value="&amp;lt;&amp;lt;Include&amp;gt;&amp;gt;" style="text;html=1;strokeColor=none;fillColor=none;align=center;verticalAlign=middle;whiteSpace=wrap;rounded=0;" vertex="1" parent="1">
          <mxGeometry x="560" y="490" width="60" height="30" as="geometry" />
        </mxCell>
        <mxCell id="IVV3LkEuz2h6UDSS0lqs-48" value="&amp;lt;&amp;lt;Include&amp;gt;&amp;gt;" style="text;html=1;strokeColor=none;fillColor=none;align=center;verticalAlign=middle;whiteSpace=wrap;rounded=0;" vertex="1" parent="1">
          <mxGeometry x="220" y="490" width="60" height="30" as="geometry" />
        </mxCell>
        <mxCell id="IVV3LkEuz2h6UDSS0lqs-53" style="edgeStyle=orthogonalEdgeStyle;rounded=0;orthogonalLoop=1;jettySize=auto;html=1;dashed=1;" edge="1" parent="1" source="IVV3LkEuz2h6UDSS0lqs-49" target="IVV3LkEuz2h6UDSS0lqs-51">
          <mxGeometry relative="1" as="geometry" />
        </mxCell>
        <mxCell id="IVV3LkEuz2h6UDSS0lqs-49" value="Seleccionar Evento" style="ellipse;whiteSpace=wrap;html=1;" vertex="1" parent="1">
          <mxGeometry x="620" y="600" width="100" height="40" as="geometry" />
        </mxCell>
        <mxCell id="IVV3LkEuz2h6UDSS0lqs-54" style="edgeStyle=orthogonalEdgeStyle;rounded=0;orthogonalLoop=1;jettySize=auto;html=1;dashed=1;" edge="1" parent="1" source="IVV3LkEuz2h6UDSS0lqs-51" target="IVV3LkEuz2h6UDSS0lqs-52">
          <mxGeometry relative="1" as="geometry" />
        </mxCell>
        <mxCell id="IVV3LkEuz2h6UDSS0lqs-60" style="edgeStyle=orthogonalEdgeStyle;rounded=0;orthogonalLoop=1;jettySize=auto;html=1;entryX=1;entryY=0.5;entryDx=0;entryDy=0;dashed=1;" edge="1" parent="1" source="IVV3LkEuz2h6UDSS0lqs-51" target="IVV3LkEuz2h6UDSS0lqs-59">
          <mxGeometry relative="1" as="geometry" />
        </mxCell>
        <mxCell id="IVV3LkEuz2h6UDSS0lqs-51" value="Actualizar Evento" style="ellipse;whiteSpace=wrap;html=1;" vertex="1" parent="1">
          <mxGeometry x="620" y="690" width="100" height="40" as="geometry" />
        </mxCell>
        <mxCell id="IVV3LkEuz2h6UDSS0lqs-52" value="Evento Actualizado" style="ellipse;whiteSpace=wrap;html=1;" vertex="1" parent="1">
          <mxGeometry x="620" y="780" width="100" height="40" as="geometry" />
        </mxCell>
        <mxCell id="IVV3LkEuz2h6UDSS0lqs-55" value="&amp;lt;&amp;lt;Include&amp;gt;&amp;gt;" style="text;html=1;strokeColor=none;fillColor=none;align=center;verticalAlign=middle;whiteSpace=wrap;rounded=0;" vertex="1" parent="1">
          <mxGeometry x="680" y="555" width="60" height="30" as="geometry" />
        </mxCell>
        <mxCell id="IVV3LkEuz2h6UDSS0lqs-56" value="&amp;lt;&amp;lt;Include&amp;gt;&amp;gt;" style="text;html=1;strokeColor=none;fillColor=none;align=center;verticalAlign=middle;whiteSpace=wrap;rounded=0;" vertex="1" parent="1">
          <mxGeometry x="690" y="650" width="60" height="30" as="geometry" />
        </mxCell>
        <mxCell id="IVV3LkEuz2h6UDSS0lqs-57" value="&amp;lt;&amp;lt;Include&amp;gt;&amp;gt;" style="text;html=1;strokeColor=none;fillColor=none;align=center;verticalAlign=middle;whiteSpace=wrap;rounded=0;" vertex="1" parent="1">
          <mxGeometry x="690" y="740" width="60" height="30" as="geometry" />
        </mxCell>
        <mxCell id="IVV3LkEuz2h6UDSS0lqs-65" style="edgeStyle=orthogonalEdgeStyle;rounded=0;orthogonalLoop=1;jettySize=auto;html=1;entryX=0;entryY=0.5;entryDx=0;entryDy=0;" edge="1" parent="1" source="IVV3LkEuz2h6UDSS0lqs-58" target="IVV3LkEuz2h6UDSS0lqs-59">
          <mxGeometry relative="1" as="geometry" />
        </mxCell>
        <mxCell id="IVV3LkEuz2h6UDSS0lqs-66" style="edgeStyle=orthogonalEdgeStyle;rounded=0;orthogonalLoop=1;jettySize=auto;html=1;entryX=0;entryY=0.5;entryDx=0;entryDy=0;" edge="1" parent="1" source="IVV3LkEuz2h6UDSS0lqs-58" target="IVV3LkEuz2h6UDSS0lqs-62">
          <mxGeometry relative="1" as="geometry" />
        </mxCell>
        <mxCell id="IVV3LkEuz2h6UDSS0lqs-58" value="&amp;lt;&amp;lt;Sistema&amp;gt;&amp;gt;" style="shape=umlActor;verticalLabelPosition=bottom;verticalAlign=top;html=1;outlineConnect=0;" vertex="1" parent="1">
          <mxGeometry x="300" y="680" width="30" height="60" as="geometry" />
        </mxCell>
        <mxCell id="IVV3LkEuz2h6UDSS0lqs-59" value="Verificar Evento" style="ellipse;whiteSpace=wrap;html=1;" vertex="1" parent="1">
          <mxGeometry x="390" y="690" width="100" height="40" as="geometry" />
        </mxCell>
        <mxCell id="IVV3LkEuz2h6UDSS0lqs-61" value="&amp;lt;&amp;lt;Include&amp;gt;&amp;gt;" style="text;html=1;strokeColor=none;fillColor=none;align=center;verticalAlign=middle;whiteSpace=wrap;rounded=0;" vertex="1" parent="1">
          <mxGeometry x="550" y="680" width="60" height="30" as="geometry" />
        </mxCell>
        <mxCell id="IVV3LkEuz2h6UDSS0lqs-64" style="edgeStyle=orthogonalEdgeStyle;rounded=0;orthogonalLoop=1;jettySize=auto;html=1;entryX=0;entryY=0.5;entryDx=0;entryDy=0;dashed=1;" edge="1" parent="1" source="IVV3LkEuz2h6UDSS0lqs-62" target="IVV3LkEuz2h6UDSS0lqs-52">
          <mxGeometry relative="1" as="geometry" />
        </mxCell>
        <mxCell id="IVV3LkEuz2h6UDSS0lqs-62" value="Mandar Correo" style="ellipse;whiteSpace=wrap;html=1;" vertex="1" parent="1">
          <mxGeometry x="390" y="780" width="100" height="40" as="geometry" />
        </mxCell>
        <mxCell id="IVV3LkEuz2h6UDSS0lqs-70" style="edgeStyle=orthogonalEdgeStyle;rounded=0;orthogonalLoop=1;jettySize=auto;html=1;entryX=1;entryY=0.5;entryDx=0;entryDy=0;dashed=1;" edge="1" parent="1" source="IVV3LkEuz2h6UDSS0lqs-67" target="IVV3LkEuz2h6UDSS0lqs-51">
          <mxGeometry relative="1" as="geometry">
            <Array as="points">
              <mxPoint x="780" y="620" />
              <mxPoint x="780" y="710" />
            </Array>
          </mxGeometry>
        </mxCell>
        <mxCell id="IVV3LkEuz2h6UDSS0lqs-67" value="Cambiar Hora" style="ellipse;whiteSpace=wrap;html=1;" vertex="1" parent="1">
          <mxGeometry x="810" y="600" width="100" height="40" as="geometry" />
        </mxCell>
        <mxCell id="IVV3LkEuz2h6UDSS0lqs-72" style="edgeStyle=orthogonalEdgeStyle;rounded=0;orthogonalLoop=1;jettySize=auto;html=1;entryX=1;entryY=0.5;entryDx=0;entryDy=0;dashed=1;" edge="1" parent="1" source="IVV3LkEuz2h6UDSS0lqs-68" target="IVV3LkEuz2h6UDSS0lqs-51">
          <mxGeometry relative="1" as="geometry" />
        </mxCell>
        <mxCell id="IVV3LkEuz2h6UDSS0lqs-68" value="Cambiar Fecha" style="ellipse;whiteSpace=wrap;html=1;" vertex="1" parent="1">
          <mxGeometry x="890" y="690" width="100" height="40" as="geometry" />
        </mxCell>
        <mxCell id="IVV3LkEuz2h6UDSS0lqs-73" style="edgeStyle=orthogonalEdgeStyle;rounded=0;orthogonalLoop=1;jettySize=auto;html=1;entryX=1;entryY=0.5;entryDx=0;entryDy=0;dashed=1;" edge="1" parent="1" source="IVV3LkEuz2h6UDSS0lqs-69" target="IVV3LkEuz2h6UDSS0lqs-51">
          <mxGeometry relative="1" as="geometry">
            <Array as="points">
              <mxPoint x="780" y="800" />
              <mxPoint x="780" y="710" />
            </Array>
          </mxGeometry>
        </mxCell>
        <mxCell id="IVV3LkEuz2h6UDSS0lqs-69" value="Cambiar Fecha" style="ellipse;whiteSpace=wrap;html=1;" vertex="1" parent="1">
          <mxGeometry x="810" y="780" width="100" height="40" as="geometry" />
        </mxCell>
        <mxCell id="IVV3LkEuz2h6UDSS0lqs-74" value="&amp;lt;&amp;lt;Exclude&amp;gt;&amp;gt;" style="text;html=1;strokeColor=none;fillColor=none;align=center;verticalAlign=middle;whiteSpace=wrap;rounded=0;" vertex="1" parent="1">
          <mxGeometry x="790" y="650" width="60" height="30" as="geometry" />
        </mxCell>
        <mxCell id="IVV3LkEuz2h6UDSS0lqs-75" value="&amp;lt;&amp;lt;Exclude&amp;gt;&amp;gt;" style="text;html=1;strokeColor=none;fillColor=none;align=center;verticalAlign=middle;whiteSpace=wrap;rounded=0;" vertex="1" parent="1">
          <mxGeometry x="790" y="740" width="60" height="30" as="geometry" />
        </mxCell>
        <mxCell id="IVV3LkEuz2h6UDSS0lqs-76" value="&amp;lt;&amp;lt;Exclude&amp;gt;&amp;gt;" style="text;html=1;strokeColor=none;fillColor=none;align=center;verticalAlign=middle;whiteSpace=wrap;rounded=0;" vertex="1" parent="1">
          <mxGeometry x="827" y="680" width="60" height="30" as="geometry" />
        </mxCell>
        <mxCell id="IVV3LkEuz2h6UDSS0lqs-92" style="edgeStyle=orthogonalEdgeStyle;rounded=0;orthogonalLoop=1;jettySize=auto;html=1;" edge="1" parent="1" source="IVV3LkEuz2h6UDSS0lqs-77" target="IVV3LkEuz2h6UDSS0lqs-91">
          <mxGeometry relative="1" as="geometry" />
        </mxCell>
        <mxCell id="IVV3LkEuz2h6UDSS0lqs-77" value="&amp;lt;&amp;lt;Empresa&amp;gt;&amp;gt;" style="shape=umlActor;verticalLabelPosition=bottom;verticalAlign=top;html=1;outlineConnect=0;" vertex="1" parent="1">
          <mxGeometry x="40" y="1020" width="30" height="60" as="geometry" />
        </mxCell>
        <mxCell id="IVV3LkEuz2h6UDSS0lqs-78" style="edgeStyle=orthogonalEdgeStyle;rounded=0;orthogonalLoop=1;jettySize=auto;html=1;entryX=0;entryY=0.5;entryDx=0;entryDy=0;dashed=1;" edge="1" parent="1" target="IVV3LkEuz2h6UDSS0lqs-80">
          <mxGeometry relative="1" as="geometry">
            <mxPoint x="190" y="1050" as="sourcePoint" />
          </mxGeometry>
        </mxCell>
        <mxCell id="IVV3LkEuz2h6UDSS0lqs-79" style="edgeStyle=orthogonalEdgeStyle;rounded=0;orthogonalLoop=1;jettySize=auto;html=1;dashed=1;" edge="1" parent="1" source="IVV3LkEuz2h6UDSS0lqs-80" target="IVV3LkEuz2h6UDSS0lqs-85">
          <mxGeometry relative="1" as="geometry" />
        </mxCell>
        <mxCell id="IVV3LkEuz2h6UDSS0lqs-80" value="Iniciar Sesión" style="ellipse;whiteSpace=wrap;html=1;" vertex="1" parent="1">
          <mxGeometry x="250" y="1030" width="100" height="40" as="geometry" />
        </mxCell>
        <mxCell id="IVV3LkEuz2h6UDSS0lqs-81" value="Registrarme" style="ellipse;whiteSpace=wrap;html=1;" vertex="1" parent="1">
          <mxGeometry x="260" y="940" width="100" height="40" as="geometry" />
        </mxCell>
        <mxCell id="IVV3LkEuz2h6UDSS0lqs-82" style="edgeStyle=orthogonalEdgeStyle;rounded=0;orthogonalLoop=1;jettySize=auto;html=1;entryX=0.6;entryY=0.03;entryDx=0;entryDy=0;entryPerimeter=0;dashed=1;" edge="1" parent="1" source="IVV3LkEuz2h6UDSS0lqs-81" target="IVV3LkEuz2h6UDSS0lqs-80">
          <mxGeometry relative="1" as="geometry" />
        </mxCell>
        <mxCell id="IVV3LkEuz2h6UDSS0lqs-83" value="&amp;lt;&amp;lt;Exclude&amp;gt;&amp;gt;" style="text;html=1;strokeColor=none;fillColor=none;align=center;verticalAlign=middle;whiteSpace=wrap;rounded=0;" vertex="1" parent="1">
          <mxGeometry x="240" y="990" width="60" height="30" as="geometry" />
        </mxCell>
        <mxCell id="IVV3LkEuz2h6UDSS0lqs-84" style="edgeStyle=orthogonalEdgeStyle;rounded=0;orthogonalLoop=1;jettySize=auto;html=1;dashed=1;" edge="1" parent="1" source="IVV3LkEuz2h6UDSS0lqs-85" target="IVV3LkEuz2h6UDSS0lqs-86">
          <mxGeometry relative="1" as="geometry" />
        </mxCell>
        <mxCell id="IVV3LkEuz2h6UDSS0lqs-85" value="Ver Perfil" style="ellipse;whiteSpace=wrap;html=1;" vertex="1" parent="1">
          <mxGeometry x="420" y="1030" width="100" height="40" as="geometry" />
        </mxCell>
        <mxCell id="IVV3LkEuz2h6UDSS0lqs-94" style="edgeStyle=orthogonalEdgeStyle;rounded=0;orthogonalLoop=1;jettySize=auto;html=1;dashed=1;" edge="1" parent="1" source="IVV3LkEuz2h6UDSS0lqs-86" target="IVV3LkEuz2h6UDSS0lqs-93">
          <mxGeometry relative="1" as="geometry" />
        </mxCell>
        <mxCell id="IVV3LkEuz2h6UDSS0lqs-86" value="Visualizar Eventos" style="ellipse;whiteSpace=wrap;html=1;" vertex="1" parent="1">
          <mxGeometry x="590" y="1030" width="100" height="40" as="geometry" />
        </mxCell>
        <mxCell id="IVV3LkEuz2h6UDSS0lqs-87" value="&amp;lt;&amp;lt;Include&amp;gt;&amp;gt;" style="text;html=1;strokeColor=none;fillColor=none;align=center;verticalAlign=middle;whiteSpace=wrap;rounded=0;" vertex="1" parent="1">
          <mxGeometry x="360" y="1020" width="60" height="30" as="geometry" />
        </mxCell>
        <mxCell id="IVV3LkEuz2h6UDSS0lqs-88" value="&amp;lt;&amp;lt;Include&amp;gt;&amp;gt;" style="text;html=1;strokeColor=none;fillColor=none;align=center;verticalAlign=middle;whiteSpace=wrap;rounded=0;" vertex="1" parent="1">
          <mxGeometry x="530" y="1020" width="60" height="30" as="geometry" />
        </mxCell>
        <mxCell id="IVV3LkEuz2h6UDSS0lqs-89" value="&amp;lt;&amp;lt;Include&amp;gt;&amp;gt;" style="text;html=1;strokeColor=none;fillColor=none;align=center;verticalAlign=middle;whiteSpace=wrap;rounded=0;" vertex="1" parent="1">
          <mxGeometry x="190" y="1020" width="60" height="30" as="geometry" />
        </mxCell>
        <mxCell id="IVV3LkEuz2h6UDSS0lqs-90" value="&amp;lt;&amp;lt;Include&amp;gt;&amp;gt;" style="text;html=1;strokeColor=none;fillColor=none;align=center;verticalAlign=middle;whiteSpace=wrap;rounded=0;" vertex="1" parent="1">
          <mxGeometry x="650" y="1090" width="60" height="30" as="geometry" />
        </mxCell>
        <mxCell id="IVV3LkEuz2h6UDSS0lqs-91" value="Eliminar Evento" style="ellipse;whiteSpace=wrap;html=1;" vertex="1" parent="1">
          <mxGeometry x="90" y="1030" width="100" height="40" as="geometry" />
        </mxCell>
        <mxCell id="IVV3LkEuz2h6UDSS0lqs-96" style="edgeStyle=orthogonalEdgeStyle;rounded=0;orthogonalLoop=1;jettySize=auto;html=1;entryX=0.5;entryY=0;entryDx=0;entryDy=0;dashed=1;" edge="1" parent="1" source="IVV3LkEuz2h6UDSS0lqs-93" target="IVV3LkEuz2h6UDSS0lqs-95">
          <mxGeometry relative="1" as="geometry" />
        </mxCell>
        <mxCell id="IVV3LkEuz2h6UDSS0lqs-93" value="Seleccionar Evento" style="ellipse;whiteSpace=wrap;html=1;" vertex="1" parent="1">
          <mxGeometry x="590" y="1140" width="100" height="40" as="geometry" />
        </mxCell>
        <mxCell id="IVV3LkEuz2h6UDSS0lqs-95" value="Borrar Evento" style="ellipse;whiteSpace=wrap;html=1;" vertex="1" parent="1">
          <mxGeometry x="590" y="1260" width="100" height="40" as="geometry" />
        </mxCell>
        <mxCell id="IVV3LkEuz2h6UDSS0lqs-97" value="&amp;lt;&amp;lt;Include&amp;gt;&amp;gt;" style="text;html=1;strokeColor=none;fillColor=none;align=center;verticalAlign=middle;whiteSpace=wrap;rounded=0;" vertex="1" parent="1">
          <mxGeometry x="650" y="1220" width="60" height="30" as="geometry" />
        </mxCell>
        <mxCell id="IVV3LkEuz2h6UDSS0lqs-101" style="edgeStyle=orthogonalEdgeStyle;rounded=0;orthogonalLoop=1;jettySize=auto;html=1;entryX=0;entryY=0.5;entryDx=0;entryDy=0;" edge="1" parent="1" source="IVV3LkEuz2h6UDSS0lqs-98" target="IVV3LkEuz2h6UDSS0lqs-100">
          <mxGeometry relative="1" as="geometry" />
        </mxCell>
        <mxCell id="IVV3LkEuz2h6UDSS0lqs-106" style="edgeStyle=orthogonalEdgeStyle;rounded=0;orthogonalLoop=1;jettySize=auto;html=1;entryX=0;entryY=0.5;entryDx=0;entryDy=0;" edge="1" parent="1" source="IVV3LkEuz2h6UDSS0lqs-98" target="IVV3LkEuz2h6UDSS0lqs-104">
          <mxGeometry relative="1" as="geometry">
            <Array as="points">
              <mxPoint x="350" y="1280" />
              <mxPoint x="350" y="1370" />
            </Array>
          </mxGeometry>
        </mxCell>
        <mxCell id="IVV3LkEuz2h6UDSS0lqs-98" value="&amp;lt;&amp;lt;Sistema&amp;gt;&amp;gt;" style="shape=umlActor;verticalLabelPosition=bottom;verticalAlign=top;html=1;outlineConnect=0;" vertex="1" parent="1">
          <mxGeometry x="270" y="1250" width="30" height="60" as="geometry" />
        </mxCell>
        <mxCell id="IVV3LkEuz2h6UDSS0lqs-102" style="edgeStyle=orthogonalEdgeStyle;rounded=0;orthogonalLoop=1;jettySize=auto;html=1;entryX=0;entryY=0.5;entryDx=0;entryDy=0;dashed=1;" edge="1" parent="1" source="IVV3LkEuz2h6UDSS0lqs-100" target="IVV3LkEuz2h6UDSS0lqs-95">
          <mxGeometry relative="1" as="geometry" />
        </mxCell>
        <mxCell id="IVV3LkEuz2h6UDSS0lqs-100" value="Mandar Correo" style="ellipse;whiteSpace=wrap;html=1;" vertex="1" parent="1">
          <mxGeometry x="370" y="1240" width="100" height="40" as="geometry" />
        </mxCell>
        <mxCell id="IVV3LkEuz2h6UDSS0lqs-103" value="&amp;lt;&amp;lt;Include&amp;gt;&amp;gt;" style="text;html=1;strokeColor=none;fillColor=none;align=center;verticalAlign=middle;whiteSpace=wrap;rounded=0;" vertex="1" parent="1">
          <mxGeometry x="490" y="1230" width="60" height="30" as="geometry" />
        </mxCell>
        <mxCell id="IVV3LkEuz2h6UDSS0lqs-108" style="edgeStyle=orthogonalEdgeStyle;rounded=0;orthogonalLoop=1;jettySize=auto;html=1;entryX=0.5;entryY=1;entryDx=0;entryDy=0;dashed=1;" edge="1" parent="1" source="IVV3LkEuz2h6UDSS0lqs-104" target="IVV3LkEuz2h6UDSS0lqs-95">
          <mxGeometry relative="1" as="geometry" />
        </mxCell>
        <mxCell id="IVV3LkEuz2h6UDSS0lqs-104" value="Devolver Entradas" style="ellipse;whiteSpace=wrap;html=1;" vertex="1" parent="1">
          <mxGeometry x="470" y="1350" width="100" height="40" as="geometry" />
        </mxCell>
        <mxCell id="IVV3LkEuz2h6UDSS0lqs-107" value="&amp;lt;&amp;lt;Exclude&amp;gt;&amp;gt;" style="text;html=1;strokeColor=none;fillColor=none;align=center;verticalAlign=middle;whiteSpace=wrap;rounded=0;" vertex="1" parent="1">
          <mxGeometry x="650" y="1320" width="60" height="30" as="geometry" />
        </mxCell>
      </root>
    </mxGraphModel>
  </diagram>
</mxfile>
